# AST/ASF file generated using VICON BodyLanguage
# -----------------------------------------------
:version 1.10
:name VICON
:units
  mass 1.0
  length 0.45
  angle deg
:documentation
   .ast/.asf automatically generated from VICON data using
   VICON BodyBuilder and BodyLanguage model FoxedUp or BRILLIANT.MOD
:root
   order TX TY TZ RX RY RZ
   axis XYZ
   position 0 0 0  
   orientation 0 0 0 
:bonedata
  begin
     id 1 
     name lhipjoint
     direction 0.707368 -0.647095 0.284426 
     length 2.60678 
     axis 0 0 0  XYZ
  end
  begin
     id 2 
     name lfemur
     direction 0.34202 -0.939693 0  
     length 6.63812  
     axis 0 0 20  XYZ
    dof rx ry rz
    limits (-160.0 20.0)
           (-70.0 70.0)
           (-60.0 70.0)
  end
  begin
     id 3 
     name ltibia
     direction 0.34202 -0.939693 0   
     length 7.51178   
     axis 0 0 20   XYZ
    dof rx
    limits (-10.0 170.0)
  end
  begin
     id 4 
     name lfoot
     direction 0.121251 -0.333133 0.935051   
     length 1.83716   
     axis -90 7.62852e-016 20   XYZ
    dof rx rz
    limits (-45.0 90.0)
           (-70.0 20.0)
  end
  begin
     id 5 
     name ltoes
     direction 1.53611e-011 -4.21962e-011 1   
     length 0.916133   
     axis -90 7.62852e-016 20   XYZ
    dof rx
    limits (-90.0 20.0)
  end
  begin
     id 6 
     name rhipjoint
     direction -0.692419 -0.660507 0.290321   
     length 2.55385  
     axis 0 0 0  XYZ 
  end
  begin
     id 7 
     name rfemur
     direction -0.34202 -0.939693 0   
     length 7.29079   
     axis 0 0 -20   XYZ
    dof rx ry rz
    limits (-160.0 20.0)
           (-70.0 70.0)
           (-70.0 60.0)
  end
  begin
     id 8 
     name rtibia
     direction -0.34202 -0.939693 0   
     length 7.47143   
     axis 0 0 -20   XYZ
    dof rx
    limits (-10.0 170.0)
 end
 begin
     id 9 
     name rfoot
     direction -0.119907 -0.329441 0.936532   
     length 1.79439  
     axis -90 -7.62852e-016 -20   XYZ
    dof rx rz
    limits (-45.0 90.0)
           (-20.0 70.0)
  end
  begin
     id 10 
     name rtoes
     direction -1.53571e-011 -4.21961e-011 1   
     length 0.896039   
     axis -90 -7.62852e-016 -20   XYZ
    dof rx
    limits (-90.0 20.0)
  end
  begin
     id 11 
     name lowerback
     direction 0.0367721 0.992912 -0.113016   
     length 1.73542   
     axis 0 0 0   XYZ
    dof rx ry rz
    limits (-20.0 45.0)
           (-30.0 30.0)
           (-30.0 30.0)
  end
  begin
     id 12 
     name upperback
     direction -0.000314626 0.990678 0.136227   
     length 1.7514   
     axis 0 0 0   XYZ
    dof rx ry rz
    limits (-20.0 45.0)
           (-30.0 30.0)
           (-30.0 30.0)
  end
  begin
     id 13 
     name thorax
     direction -0.0226159 0.981151 0.191917   
     length 1.71471   
     axis 0 0 0   XYZ
    dof rx ry rz
    limits (-20.0 45.0)
           (-30.0 30.0)
           (-30.0 30.0)
  end
  begin
     id 14 
     name lowerneck
     direction 0.0219333 0.998071 0.0580739   
     length 1.65882   
     axis 0 0 0   XYZ
    dof rx ry rz
    limits (-20.0 45.0)
           (-30.0 30.0)
           (-30.0 30.0)
  end
  begin
     id 15 
     name upperneck
     direction 0.0384529 0.980058 -0.194957   
     length 1.6612   
     axis 0 0 0   XYZ
    dof rx ry rz
    limits (-20.0 45.0)
           (-30.0 30.0)
           (-30.0 30.0)
  end
  begin
     id 16
     name head
     direction 0.00592123 0.997421 -0.0715234  
     length 1.68077  
     axis 0 0 0   XYZ
    dof rx ry rz
    limits (-20.0 45.0)
           (-30.0 30.0)
           (-30.0 30.0)
  end
  begin
     id 17 
     name lclavicle
     direction 0.904803 0.417826 0.0821728  
     length 3.42227  
     axis 0 0 0   XYZ
    dof ry rz
    limits (-20.0 10.0)
           (0.0 20.0)
  end
  begin
     id 18 
     name lhumerus
     direction 1 -4.48965e-011 -2.68786e-027   
     length 5.11878   
     axis -180 -30 -90   XYZ
    dof rx ry rz
    limits (-60.0 90.0)
           (-90.0 90.0)
           (-90.0 90.0)
  end
  begin
     id 19
     name lradius
     direction 1 -4.48965e-011 2.61168e-028   
     length 3.59971   
     axis -180 -30 -90   XYZ
    dof rx
    limits (-10.0 170.0)
  end
  begin
     id 20
     name lwrist
     direction 1 -4.48965e-011 1.58672e-027   
     length 1.79985   
     axis -1.65735e-015 90 90   XYZ
    dof ry
    limits (-180.0 0.0)
 end
  begin
     id 21 
     name lhand
     direction 1 -4.48942e-011 3.17344e-027   
     length 0.62877   
     axis -2.02492e-015 90 90   XYZ
    dof rx rz
    limits (-90.0 90.0)
           (-45.0 45.0)
  end
  begin
     id 22 
     name lfingers
     direction 1 -4.49011e-011 6.34687e-027   
     length 0.506931   
     axis -4.04985e-015 90 90   XYZ
    dof rx
    limits (0.0 90.0)
  end
  begin
     id 23
     name lthumb
     direction 0.707107 -6.34982e-011 0.707107   
     length 0.727854   
     axis -90 45 2.85299e-015   XYZ
    dof rx rz
    limits (-45.0 45.0)
           (-45.0 45.0)
  end
  begin
     id 24 
     name rclavicle
     direction -0.945647 0.32488 0.0143075   
     length 3.52737  
     axis 0 0 0   XYZ 
    dof ry rz
    limits (-10.0 20.0)
           (-20.0 0.0)
  end
  begin
     id 25 
     name rhumerus
     direction -1 -4.48962e-011 1.92182e-027  
     length 5.4902   
     axis -180 30 90   XYZ
    dof rx ry rz
    limits (-90.0 60.0)
           (-90.0 90.0)
           (-90.0 90.0)
  end
  begin
     id 26 
     name rradius
     direction -1 -4.48967e-011 -5.97193e-028   
     length 3.20659   
     axis -180 30 90   XYZ
    dof rx
    limits (-10.0 170.0)
  end
  begin
     id 27 
     name rwrist
     direction -1 -4.48964e-011 1.58672e-027   
     length 1.6033   
     axis -1.65735e-015 -90 -90   XYZ
    dof ry
    limits (-180.0 0.0)
  end
  begin
     id 28
     name rhand
     direction -1 -4.49006e-011 3.17344e-027   
     length 0.691885   
     axis -2.02492e-015 -90 -90   XYZ
    dof rx rz
    limits (-90.0 90.0)
           (-45.0 45.0)
  end
  begin
     id 29
     name rfingers
     direction -1 -4.48908e-011 6.34687e-027   
     length 0.557815   
     axis -4.04985e-015 -90 -90   XYZ
    dof rx
    limits (0.0 90.0)
  end
  begin
     id 30
     name rthumb
     direction -0.707107 -6.34999e-011 0.707107   
     length 0.800915   
     axis -90 -45 -2.85299e-015   XYZ
    dof rx rz
    limits (-45.0 45.0)
           (-45.0 45.0)
  end
:hierarchy
  begin
    root lhipjoint rhipjoint lowerback
    lhipjoint lfemur
    lfemur ltibia
    ltibia lfoot
    lfoot ltoes
    rhipjoint rfemur
    rfemur rtibia
    rtibia rfoot
    rfoot rtoes
    lowerback upperback
    upperback thorax
    thorax lowerneck lclavicle rclavicle
    lowerneck upperneck
    upperneck head
    lclavicle lhumerus
    lhumerus lradius
    lradius lwrist
    lwrist lhand lthumb
    lhand lfingers
    rclavicle rhumerus
    rhumerus rradius
    rradius rwrist
    rwrist rhand rthumb
    rhand rfingers
  end

#!OML:ASF I:\Actors\actors\Patient Classification 1\Patient 1\Session 1\Subject1.ASF
:FULLY-SPECIFIED
:DEGREES
29
root -0.389519 17.4792 7.33932 5.42507 0.155335 -7.63844
lowerback 1.39434 1.53 5.68982
upperback -8.7245 2.51935 0.800127
thorax -9.85321 0.816106 -2.56744
lowerneck -2.06676 -12.1198 -10.4955
upperneck 19.9124 -17.9952 9.96591
head 8.38089 -8.66723 3.3397
rclavicle -1.20265e-014 -3.57812e-015
rhumerus -41.7026 -16.3501 -81.3758
rradius 22.6231
rwrist 41.2931
rhand 2.41294 -33.4588
rfingers 7.12502
rthumb 27.8994 -61.4065
lclavicle -1.20265e-014 -3.57812e-015
lhumerus -41.4944 3.44145 86.837
lradius 21.9537
lwrist -22.5597
lhand -14.5286 -11.3503
lfingers 7.12502
lthumb 11.6194 18.3075
rfemur 1.25224 24.3689 26.9277
rtibia 1.43926
rfoot -12.1955 -23.2532
rtoes 3.6069
lfemur 8.88336 -40.5728 -16.2883
ltibia -4.66049
lfoot -13.1955 45.6648
ltoes 2.92814
30
root -0.389419 17.4799 7.33885 5.41875 0.151761 -7.61479
lowerback 1.39863 1.53968 5.67229
upperback -8.71802 2.52861 0.768275
thorax -9.84661 0.8208 -2.59257
lowerneck -2.10092 -12.182 -10.4706
upperneck 20.0028 -18.0846 9.92278
head 8.42141 -8.70781 3.30687
rclavicle 1.39149e-015 -1.51076e-014
rhumerus -41.6909 -16.2893 -81.4651
rradius 22.6708
rwrist 41.1543
rhand 2.4322 -33.4792
rfingers 7.12502
rthumb 27.9179 -61.424
lclavicle 1.39149e-015 -1.51076e-014
lhumerus -41.51 3.22297 86.9357
lradius 21.9623
lwrist -22.0324
lhand -14.7431 -11.472
lfingers 7.12502
lthumb 11.4125 18.1974
rfemur 1.26521 24.3585 26.9015
rtibia 1.42467
rfoot -12.2159 -23.2257
rtoes 3.72335
lfemur 8.89886 -40.5779 -16.3326
ltibia -4.65779
lfoot -13.2054 45.679
ltoes 2.88427
31
root -0.389159 17.48 7.33795 5.42404 0.141318 -7.61607
lowerback 1.40211 1.54373 5.67825
upperback -8.71866 2.53323 0.750052
thorax -9.84803 0.821616 -2.61588
lowerneck -2.17052 -12.2242 -10.5014
upperneck 20.1123 -18.152 9.93014
head 8.48265 -8.73606 3.29829
rclavicle 2.127e-014 -1.03368e-014
rhumerus -41.6884 -16.2066 -81.5498
rradius 22.7008
rwrist 41.0484
rhand 2.40902 -33.5076
rfingers 7.12502
rthumb 27.8957 -61.4559
lclavicle 2.127e-014 -1.03368e-014
lhumerus -41.5332 3.06712 87.005
lradius 21.9729
lwrist -21.7278
lhand -14.9456 -11.5764
lfingers 7.12502
lthumb 11.2172 18.1038
rfemur 1.25099 24.3706 26.8945
rtibia 1.43265
rfoot -12.2522 -23.1983
rtoes 4.01177
lfemur 8.87408 -40.5368 -16.3127
ltibia -4.6525
lfoot -13.1673 45.6513
ltoes 2.88401
32
root -0.389092 17.4799 7.33702 5.42128 0.113316 -7.63046
lowerback 1.41611 1.54525 5.68645
upperback -8.71841 2.53633 0.744706
thorax -9.85543 0.821929 -2.6269
lowerneck -2.22748 -12.2385 -10.5898
upperneck 20.2107 -18.1953 10.0285
head 8.5498 -8.75054 3.3316
rclavicle 1.41137e-014 9.93923e-015
rhumerus -41.681 -16.0747 -81.6468
rradius 22.7385
rwrist 40.9077
rhand 2.43521 -33.5559
rfingers 7.12502
rthumb 27.9207 -61.5001
lclavicle 1.41137e-014 9.93923e-015
lhumerus -41.5508 3.03658 87.0037
lradius 21.9804
lwrist -21.6885
lhand -15.0472 -11.632
lfingers 7.12502
lthumb 11.1192 18.0534
rfemur 1.23105 24.4069 26.9069
rtibia 1.46977
rfoot -12.3058 -23.1751
rtoes 4.13461
lfemur 8.86949 -40.4712 -16.2783
ltibia -4.66896
lfoot -13.0672 45.6197
ltoes 2.6412
33
root -0.388845 17.4794 7.33652 5.41954 0.0595703 -7.63444
lowerback 1.42091 1.54848 5.67868
upperback -8.71853 2.54016 0.741901
thorax -9.85815 0.82414 -2.62609
lowerneck -2.26236 -12.2465 -10.5748
upperneck 20.3008 -18.2175 10.0305
head 8.58806 -8.75655 3.32363
rclavicle -4.27387e-015 -5.96354e-015
rhumerus -41.6781 -15.988 -81.7204
rradius 22.7534
rwrist 40.8549
rhand 2.38591 -33.6008
rfingers 7.12502
rthumb 27.8736 -61.5527
lclavicle -4.27387e-015 -5.96354e-015
lhumerus -41.5994 3.03314 86.9861
lradius 22.0178
lwrist -21.6701
lhand -15.1544 -11.6167
lfingers 7.12502
lthumb 11.0159 18.0742
rfemur 1.20309 24.4005 26.9032
rtibia 1.5095
rfoot -12.2769 -23.1395
rtoes 3.89608
lfemur 8.89949 -40.4407 -16.287
ltibia -4.69453
lfoot -13.0735 45.6385
ltoes 2.57669
34
root -0.388619 17.4792 7.3362 5.42946 0.0229262 -7.63575
lowerback 1.40816 1.54935 5.66706
upperback -8.72627 2.54006 0.744383
thorax -9.85963 0.824957 -2.61664
lowerneck -2.27602 -12.2487 -10.5288
upperneck 20.3728 -18.2212 9.98021
head 8.60601 -8.75709 3.29847
rclavicle -6.75868e-015 9.54166e-015
rhumerus -41.6986 -15.9714 -81.7364
rradius 22.7444
rwrist 40.8754
rhand 2.24081 -33.5891
rfingers 7.12502
rthumb 27.7349 -61.5635
lclavicle -6.75868e-015 9.54166e-015
lhumerus -41.6627 3.03157 86.9791
lradius 22.058
lwrist -21.6956
lhand -15.2015 -11.6187
lfingers 7.12502
lthumb 10.9704 18.0747
rfemur 1.17358 24.3442 26.8879
rtibia 1.51796
rfoot -12.1821 -23.0785
rtoes 3.69808
lfemur 8.91509 -40.4681 -16.309
ltibia -4.69262
lfoot -13.2057 45.6991
ltoes 2.7704
35
root -0.38867 17.4792 7.33606 5.4396 0.0178496 -7.64391
lowerback 1.39121 1.54938 5.66044
upperback -8.73202 2.53883 0.746477
thorax -9.85632 0.825025 -2.6101
lowerneck -2.29062 -12.2524 -10.5447
upperneck 20.4317 -18.2338 9.99011
head 8.63276 -8.76155 3.30048
rclavicle -1.92821e-014 -1.59028e-015
rhumerus -41.7246 -16.0154 -81.7097
rradius 22.748
rwrist 40.8713
rhand 2.20955 -33.5454
rfingers 7.12502
rthumb 27.705 -61.5246
lclavicle -1.92821e-014 -1.59028e-015
lhumerus -41.6843 3.04112 86.9671
lradius 22.0586
lwrist -21.7602
lhand -15.1231 -11.7323
lfingers 7.12502
lthumb 11.046 17.957
rfemur 1.15833 24.3131 26.8872
rtibia 1.51697
rfoot -12.1707 -23.0369
rtoes 3.83457
lfemur 8.91365 -40.5323 -16.3129
ltibia -4.67718
lfoot -13.2984 45.7628
ltoes 2.95187
36
root -0.388756 17.4787 7.33602 5.44539 0.0141107 -7.67273
lowerback 1.38205 1.56325 5.7031
upperback -8.73001 2.5583 0.730578
thorax -9.84509 0.830744 -2.65219
lowerneck -2.29932 -12.2767 -10.5399
upperneck 20.4468 -18.2771 10.02
head 8.64707 -8.77854 3.30286
rclavicle -1.3418e-014 -9.14409e-015
rhumerus -41.7251 -16.0776 -81.703
rradius 22.7425
rwrist 40.8097
rhand 2.28763 -33.5375
rfingers 7.12502
rthumb 27.7796 -61.5046
lclavicle -1.3418e-014 -9.14409e-015
lhumerus -41.6773 2.96228 86.9797
lradius 22.0578
lwrist -21.743
lhand -15.0244 -11.7523
lfingers 7.12502
lthumb 11.1412 17.9319
rfemur 1.14615 24.3377 26.9207
rtibia 1.52914
rfoot -12.1985 -23.0465
rtoes 3.88965
lfemur 8.91454 -40.5598 -16.2743
ltibia -4.69033
lfoot -13.2835 45.7874
ltoes 3.01807
37
root -0.388423 17.4783 7.33588 5.45035 0.00939882 -7.68738
lowerback 1.38421 1.57032 5.71628
upperback -8.73124 2.56881 0.729055
thorax -9.84645 0.834692 -2.66219
lowerneck -2.29624 -12.2971 -10.5044
upperneck 20.4279 -18.3051 10.0103
head 8.63883 -8.79048 3.29141
rclavicle -5.46658e-015 9.54166e-015
rhumerus -41.7271 -16.0903 -81.6935
rradius 22.7312
rwrist 40.7319
rhand 2.30052 -33.5344
rfingers 7.12502
rthumb 27.792 -61.4995
lclavicle -5.46658e-015 9.54166e-015
lhumerus -41.6822 2.8975 87.0212
lradius 22.0558
lwrist -21.6539
lhand -14.9704 -11.6559
lfingers 7.12502
lthumb 11.1933 18.0256
rfemur 1.13069 24.3349 26.9343
rtibia 1.53742
rfoot -12.1947 -23.0438
rtoes 3.67541
lfemur 8.90447 -40.5122 -16.2391
ltibia -4.70972
lfoot -13.1511 45.7377
ltoes 2.84232
38
root -0.387929 17.4779 7.33566 5.4615 -0.0177334 -7.68143
lowerback 1.39661 1.57025 5.68979
upperback -8.74671 2.56928 0.737806
thorax -9.87236 0.836364 -2.63886
lowerneck -2.28652 -12.2933 -10.4985
upperneck 20.4389 -18.2994 9.99626
head 8.63821 -8.78873 3.28735
rclavicle -1.0635e-014 -2.14687e-014
rhumerus -41.7849 -16.1203 -81.65
rradius 22.7563
rwrist 40.7323
rhand 2.25138 -33.4982
rfingers 7.12502
rthumb 27.745 -61.4709
lclavicle -1.0635e-014 -2.14687e-014
lhumerus -41.7014 2.98806 86.9882
lradius 22.0114
lwrist -21.672
lhand -14.9364 -11.6803
lfingers 7.12502
lthumb 11.2261 17.9993
rfemur 1.10405 24.3118 26.9173
rtibia 1.55286
rfoot -12.1841 -22.9987
rtoes 3.49762
lfemur 8.90219 -40.4971 -16.2492
ltibia -4.71133
lfoot -13.0673 45.7402
ltoes 2.67165
